<svg width="70" height="70" fill="none" xmlns="http://www.w3.org/2000/svg"><path d="M12 29.333v17.25a9.595 9.595 0 009.583 9.584h26.834A9.595 9.595 0 0058 46.583v-17.25H12zM38.833 48.5H23.5a1.917 1.917 0 110-3.833h15.333a1.917 1.917 0 110 3.833zm7.667-7.667h-23a1.917 1.917 0 010-3.833h23a1.917 1.917 0 110 3.833zM58 25.5v-1.917A9.594 9.594 0 0048.417 14H21.583A9.594 9.594 0 0012 23.583V25.5h46zm-26.833-7.667a1.917 1.917 0 110 3.834 1.917 1.917 0 010-3.834zm-5.75 0a1.917 1.917 0 110 3.834 1.917 1.917 0 010-3.834zm-5.75 0a1.917 1.917 0 110 3.834 1.917 1.917 0 010-3.834z" fill="#7D82B7"/></svg>