<svg width="70" height="70" fill="none" xmlns="http://www.w3.org/2000/svg"><path d="M22.5 32.917V53.75A6.258 6.258 0 0028.75 60h25A6.258 6.258 0 0060 53.75V32.917H22.5zm27.083 10.416c0 4.596-3.737 8.334-8.333 8.334s-8.333-3.738-8.333-8.334v-4.166h4.166v4.166A4.17 4.17 0 0041.25 47.5a4.17 4.17 0 004.167-4.167v-4.166h4.166v4.166zM18.333 28.75h31.25v-8.333H39.167v-1.042c0-5.169-4.207-9.375-9.375-9.375-5.17 0-9.375 4.206-9.375 9.375v1.042H10v22.916a6.258 6.258 0 006.25 6.25h2.083V28.75zm6.25-9.375a5.214 5.214 0 015.209-5.208A5.214 5.214 0 0135 19.375v1.042H24.583v-1.042z" fill="#7D82B7"/></svg>