<svg width="70" height="70" fill="none" xmlns="http://www.w3.org/2000/svg"><path d="M53.75 30.84c-.435-17.965-25.913-19.777-28.981-2.213l-6.43 2.338C18.249 19.438 27.645 10 39.168 10.006c27.68 1.054 27.548 40.796-.127 41.66l2.337-6.428c6.994-1.071 12.373-7.11 12.373-14.398zm-13.938-.644a11.329 11.329 0 013.303 9.12c3.197-1.49 5.429-4.714 5.429-8.476.04-9.99-13.838-12.9-17.869-3.917 3.365-.427 6.723.873 9.137 3.273zm-28.89 24.469l5.51-5.51-3.47-3.472a5.476 5.476 0 01-1.482-5.08 5.478 5.478 0 013.492-3.98l14.246-5.18c2.696-.978 5.623-.324 7.65 1.699a7.224 7.224 0 011.696 7.648l-5.18 14.245a5.477 5.477 0 01-3.979 3.492 5.479 5.479 0 01-5.081-1.481l-3.47-3.47-5.511 5.51c-2.902 2.877-7.296-1.52-4.42-4.42l-.001-.001zm16.987-2.87l4.777-13.143a.991.991 0 00-.241-1.092c-.173-.177-.546-.447-1.092-.241l-13.144 4.777 9.7 9.7z" fill="#7D82B7"/></svg>