<svg width="70" height="70" viewBox="0 0 70 70" fill="none" xmlns="http://www.w3.org/2000/svg">
<path d="M12 29.3333V46.5833C12.003 49.1241 13.0137 51.5598 14.8103 53.3564C16.6068 55.153 19.0426 56.1636 21.5833 56.1667H48.4167C50.9574 56.1636 53.3932 55.153 55.1897 53.3564C56.9863 51.5598 57.997 49.1241 58 46.5833V29.3333H12ZM38.8333 48.5H23.5C22.9917 48.5 22.5042 48.2981 22.1447 47.9386C21.7853 47.5792 21.5833 47.0917 21.5833 46.5833C21.5833 46.075 21.7853 45.5875 22.1447 45.228C22.5042 44.8686 22.9917 44.6667 23.5 44.6667H38.8333C39.3417 44.6667 39.8292 44.8686 40.1886 45.228C40.5481 45.5875 40.75 46.075 40.75 46.5833C40.75 47.0917 40.5481 47.5792 40.1886 47.9386C39.8292 48.2981 39.3417 48.5 38.8333 48.5ZM46.5 40.8333H23.5C22.9917 40.8333 22.5042 40.6314 22.1447 40.272C21.7853 39.9125 21.5833 39.425 21.5833 38.9167C21.5833 38.4083 21.7853 37.9208 22.1447 37.5614C22.5042 37.2019 22.9917 37 23.5 37H46.5C47.0083 37 47.4958 37.2019 47.8553 37.5614C48.2147 37.9208 48.4167 38.4083 48.4167 38.9167C48.4167 39.425 48.2147 39.9125 47.8553 40.272C47.4958 40.6314 47.0083 40.8333 46.5 40.8333ZM58 25.5V23.5833C57.997 21.0426 56.9863 18.6068 55.1897 16.8103C53.3932 15.0137 50.9574 14.003 48.4167 14H21.5833C19.0426 14.003 16.6068 15.0137 14.8103 16.8103C13.0137 18.6068 12.003 21.0426 12 23.5833L12 25.5H58ZM31.1667 17.8333C31.5457 17.8333 31.9163 17.9457 32.2315 18.1563C32.5467 18.367 32.7924 18.6663 32.9374 19.0165C33.0825 19.3667 33.1205 19.7521 33.0465 20.1239C32.9725 20.4957 32.79 20.8372 32.522 21.1053C32.2539 21.3733 31.9124 21.5559 31.5406 21.6298C31.1688 21.7038 30.7834 21.6658 30.4332 21.5208C30.083 21.3757 29.7836 21.13 29.573 20.8148C29.3624 20.4996 29.25 20.1291 29.25 19.75C29.25 19.2417 29.4519 18.7542 29.8114 18.3947C30.1708 18.0353 30.6583 17.8333 31.1667 17.8333ZM25.4167 17.8333C25.7957 17.8333 26.1663 17.9457 26.4815 18.1563C26.7967 18.367 27.0424 18.6663 27.1874 19.0165C27.3325 19.3667 27.3705 19.7521 27.2965 20.1239C27.2225 20.4957 27.04 20.8372 26.772 21.1053C26.5039 21.3733 26.1624 21.5559 25.7906 21.6298C25.4188 21.7038 25.0334 21.6658 24.6832 21.5208C24.333 21.3757 24.0336 21.13 23.823 20.8148C23.6124 20.4996 23.5 20.1291 23.5 19.75C23.5 19.2417 23.7019 18.7542 24.0614 18.3947C24.4208 18.0353 24.9083 17.8333 25.4167 17.8333ZM19.6667 17.8333C20.0457 17.8333 20.4163 17.9457 20.7315 18.1563C21.0467 18.367 21.2924 18.6663 21.4374 19.0165C21.5825 19.3667 21.6205 19.7521 21.5465 20.1239C21.4726 20.4957 21.29 20.8372 21.022 21.1053C20.7539 21.3733 20.4124 21.5559 20.0406 21.6298C19.6688 21.7038 19.2834 21.6658 18.9332 21.5208C18.583 21.3757 18.2836 21.13 18.073 20.8148C17.8624 20.4996 17.75 20.1291 17.75 19.75C17.75 19.2417 17.9519 18.7542 18.3114 18.3947C18.6708 18.0353 19.1583 17.8333 19.6667 17.8333Z" fill="#7D82B7"/>
</svg>
