<svg width="191" height="42" fill="none" xmlns="http://www.w3.org/2000/svg"><path fill-rule="evenodd" clip-rule="evenodd" d="M68.012 23.349c0 4.668 2.864 7.493 7.14 7.493 1.687 0 2.982-.55 3.845-1.06.51-.313.941-.666 1.334-1.059h.196v1.805h3.57v-17.85h-3.57v10.71c0 2.314-1.962 4.276-4.63 4.276-2.471 0-4.276-1.962-4.276-4.276v-10.71h-3.57v10.67h-.039zm81.011 7.14h3.374V19.073c0-4.159-2.628-6.787-7.336-6.787-4.472 0-7.14 2.55-7.336 5.531h3.57c.196-1.06 1.255-2.51 3.766-2.51 2.315 0 3.766 1.412 3.766 3.766v.353h-4.472c-4.982 0-7.336 2.314-7.336 5.884 0 3.256 2.51 5.532 6.434 5.532 1.843 0 3.216-.589 4.08-1.138a4.656 4.656 0 001.294-1.177h.196v1.962zm-29.658-5.179c-.588 1.256-2.158 2.51-4.276 2.51-2.864 0-4.982-1.96-5.375-4.981h13.731l.078-.51c0-.079 0-.157.04-.197a7.38 7.38 0 00.078-1.059c0-4.982-3.766-8.748-8.552-8.748-5.179 0-8.945 3.766-8.945 9.297 0 5.532 3.766 9.298 8.945 9.298 4.629 0 7.179-3.217 8.042-5.531h-3.766v-.079zm59.513 5.179h-3.57V5.499h3.57v15.339l7.493-8.2h4.276l-8.042 8.75 8.395 9.1h-4.276l-7.846-8.552v8.553zm-19.459 0h-3.57v-17.85h3.57v1.804h.197a7.187 7.187 0 011.333-1.059c.863-.55 2.158-1.06 3.845-1.06 4.276 0 7.14 2.825 7.14 7.494v10.71h-3.57v-10.75c0-2.314-1.805-4.275-4.276-4.275-2.668 0-4.629 1.961-4.629 4.276l-.04 10.71zm-28.01 0c-2.55 0-3.923-1.413-3.923-3.767v-10.71h-2.864V12.64h2.864V7.617h3.57V12.6h4.119v3.374h-4.119v10.161c0 .706.353 1.06 1.059 1.06h3.021v3.216l-3.727.079zm-40.33 0h-3.57v-17.85h3.57v1.804h.197a7.203 7.203 0 011.334-1.059c.863-.55 2.157-1.06 3.844-1.06 4.276 0 7.14 2.825 7.14 7.494v10.71h-3.57v-10.75c0-2.314-1.804-4.275-4.276-4.275-2.668 0-4.629 1.961-4.629 4.276l-.04 10.71zm-29.383 0c-2.55 0-3.923-1.413-3.923-3.767v-10.71h-2.864V12.64h2.864V7.617h3.57V12.6h4.12v3.374h-4.12v10.161c0 .706.353 1.06 1.06 1.06h3.02v3.216l-3.727.079zm87.17-7.494c0 3.021-1.765 4.826-4.982 4.826-2.158 0-3.217-1.06-3.217-2.668s1.216-2.864 3.923-2.864h4.276v.706zm-39.152-2.863c.549-2.864 2.315-4.826 5.375-4.826 2.864 0 4.786 1.962 5.178 4.826h-10.553z" fill="#78788B"/><path d="M24.545 2.674a16.532 16.532 0 013.138.079l5.61 9.729c-.98-.118-2.04-.157-3.138-.079l-5.61-9.729zM13.639 5.891a31.471 31.471 0 013.334-1.53l5.61 9.73a31.473 31.473 0 00-3.334 1.53l-5.61-9.73zM4.38 13.345a25.635 25.635 0 012.236-2.432l5.61 9.729a25.61 25.61 0 00-2.236 2.432l-5.61-9.73zm2.197 16.32c-.431 1.922-.314 3.766.47 5.335L1.87 26.016l-.235-.353C.693 24.015.496 22.015.967 19.936l5.61 9.729zM35.53 12.953l-5.61-9.73c2.04.628 3.648 1.805 4.629 3.453.078.117.157.235.196.392l5.178 8.984c-.98-1.452-2.51-2.511-4.394-3.1zM7.244 7.225a44.8 44.8 0 012.982-2.158l8.003 13.927c-1.06.667-2.08 1.373-2.982 2.158L7.244 7.225zM.457 15.699c.393-.903.903-1.844 1.491-2.786L9.951 26.84a18.9 18.9 0 00-1.49 2.746L.456 15.7zm25.657-.314L18.111 1.497a25.532 25.532 0 013.256-.706L29.37 14.68a24.16 24.16 0 00-3.256.706z" fill="#78788B"/><path d="M17.209 39.355a16.548 16.548 0 01-3.139-.079l-5.61-9.729c.981.118 2.04.157 3.139.078l5.61 9.73zm10.906-3.256a31.495 31.495 0 01-3.335 1.53l-5.61-9.73a31.513 31.513 0 003.335-1.53l5.61 9.73zm9.297-7.454a25.637 25.637 0 01-2.236 2.432l-5.649-9.73a25.625 25.625 0 002.236-2.431l5.65 9.729zm-2.236-16.32c.432-1.922.314-3.766-.47-5.335l5.178 8.983.235.353c.942 1.648 1.138 3.649.667 5.728l-5.61-9.73zM6.224 29.037l5.61 9.73c-2.04-.628-3.648-1.805-4.63-3.453a1.228 1.228 0 01-.195-.392L1.83 25.938c.981 1.49 2.511 2.51 4.394 3.1zm28.325 5.728a44.785 44.785 0 01-2.982 2.157l-8.042-13.926c1.059-.667 2.079-1.373 2.981-2.158l8.043 13.927zm6.747-8.474a21.556 21.556 0 01-1.49 2.785L31.802 15.19a18.897 18.897 0 001.491-2.746l8.003 13.848zm-25.617.314l8.003 13.887c-1.099.314-2.197.55-3.256.707L12.423 27.31a25.536 25.536 0 003.256-.706z" fill="#78788B"/></svg>