<svg width="192" height="36" fill="none" xmlns="http://www.w3.org/2000/svg"><path d="M56.484 15.474c-2.133.262-3.478.886-4.364 1.772-.722.721-1.082 1.607-1.082 2.493 0 1.608 1.148 2.756 2.591 2.756.886 0 1.772-.361 2.231-.886a1.38 1.38 0 00.361-.886l.263-5.25zm3.641 9.514c-1.771 0-3.379-1.148-3.838-2.92-.886 1.608-2.592 2.92-4.79 2.92-2.493 0-4.626-1.968-4.626-4.429 0-3.478 3.28-5.97 9.514-6.037v-.885c.099-2.494-1.345-4.003-3.838-4.003-1.772 0-3.642 1.148-4.889 2.658-.098.098-.623-.46-.623-.525 1.608-3.216 4.528-4.987 7.546-4.987 3.477 0 5.97 2.493 5.872 6.66l-.262 6.922c0 1.608.722 2.297 1.51 2.297.885 0 1.508-.722 1.87-1.673 0-.099.524.164.524.262.033 2.395-1.739 3.74-3.97 3.74zm22.146-.623h-4.725c-.098 0-.098-.886 0-.886 1.969-.262 2.231-.46 2.231-4.265v-5.348c0-2.395-1.41-4.1-3.477-4.1-1.411 0-2.756.721-3.38 1.607-.459.525-.721 1.51-.721 2.756v5.052c0 3.839.459 4.003 2.395 4.265 0 0 .098.886 0 .886h-9.022c-.099 0-.099-.886-.099-.886 2.133-.36 2.395-.459 2.395-4.265v-6.496c0-3.904-.46-4.1-2.756-4.429-.164 0-.098-.886 0-.886h6.759v3.904h.098c1.51-2.854 3.839-4.527 6.66-4.527 3.215 0 5.676 2.493 5.676 6.594v5.775c0 3.838.36 4.002 2.493 4.265.164 0 .099.886 0 .886-1.312.098-3.28.098-4.527.098zm14.304.623c-5.348 0-8.793-4.166-8.793-8.99 0-5.15 3.478-9.251 9.154-9.251 2.657 0 4.002.886 4.79.886.361 0 .722-.263.886-.722 0-.098 1.082-.098 1.082 0v6.398c0 .098-1.082.098-1.082 0-1.411-2.92-3.38-5.414-5.676-5.414-2.854 0-4.528 3.019-4.528 7.185 0 4.43 2.297 7.382 5.512 7.382 2.133 0 4.528-1.51 5.512-3.215.098-.164.787.164.787.36-1.148 3.052-4.166 5.381-7.644 5.381zm21.62-11.286v-1.246c0-2.756-1.345-4.364-3.018-4.364-2.132 0-3.74 2.297-4.101 5.61h7.119zm-7.119 2.034c0 3.839 2.133 6.759 5.774 6.759 2.133 0 4.265-1.41 5.414-3.215 0-.099.721.164.721.36-.984 3.019-4.166 5.348-7.742 5.348-5.61 0-8.891-4.1-8.891-8.99 0-4.887 3.477-9.251 9.35-9.251 4.429 0 7.382 2.92 7.644 6.922v1.247H111.24c-.164.197-.164.656-.164.82zm21.161 9.252c-2.756 0-5.151-.721-5.971-1.247-.098-.098-.361-2.394-.361-4.724 0-.098 1.083-.164 1.083 0 1.411 3.117 3.478 4.889 5.676 4.889 1.87 0 3.215-.985 3.215-2.494 0-1.771-2.133-2.592-4.265-3.543-2.592-.984-5.512-2.297-5.512-5.61 0-2.592 2.231-5.25 6.398-5.25 1.771 0 2.92.722 3.74.722.361 0 .721-.262.984-.721 0-.099 1.083-.099 1.083 0v5.872c0 .098-1.083.098-1.083 0-1.411-2.657-3.117-4.527-5.151-4.527-1.87 0-2.756 1.246-2.756 2.23 0 1.772 2.034 2.494 4.167 3.38 2.592 1.082 5.61 2.395 5.61 5.774 0 2.854-2.69 5.25-6.857 5.25zM141.03 9.24c-.263 0-.361-.721-.099-.885 1.87-1.674 4.987-4.528 6.66-6.3.099-.098.722 0 .722.165v5.249h6.037c.164 0 .164 1.673 0 1.673h-6.037v9.875c0 2.231 1.345 3.215 2.756 3.215 1.083 0 2.231-.885 2.756-1.968 0-.098.722.262.722.36-.722 2.396-3.019 4.266-5.611 4.266-2.755 0-4.986-1.772-4.986-5.25V9.24h-2.92zm28.116 2.855c-.525 0-1.87-1.608-2.854-1.608-.46 0-.984.263-1.411.722-.722.722-1.345 2.395-1.345 3.838v4.265c0 3.905.623 4.003 2.657 4.265 0 0 .099.886 0 .886h-9.416c-.098 0-.098-.886 0-.886 2.133-.36 2.395-.459 2.395-4.265v-6.496c0-3.838-.459-4.1-2.755-4.429-.164 0-.099-.885 0-.885h6.856v4.429h.164c.165-.525.525-1.149.788-1.772 1.247-2.034 2.756-3.28 4.363-3.28 1.509 0 2.756 1.148 2.756 2.394.099 1.411-1.771 2.822-2.198 2.822zm18.405 2.296l-5.807 14.862c-2.034 5.25-3.904 6.3-6.397 6.3-1.411 0-3.019-.722-3.019-1.149-.098-.722.886-3.28 1.411-3.28.164 0 2.297.984 3.379.984 1.51 0 2.494-.985 3.281-3.117l1.083-2.854c-.361-1.411-4.626-10.761-5.151-12.008-1.083-2.494-1.772-4.43-2.493-5.151-.46-.46-.886-.623-2.133-.787-.098 0-.098-.886 0-.886 1.148 0 3.543.098 4.888.098 1.346 0 3.642-.098 4.79-.098.099 0 .099.886 0 .886-2.657.36-2.395 1.246-.984 4.79l3.117 7.545 2.493-6.496c.886-2.23 1.345-3.543 1.345-4.363 0-.984-.623-1.345-2.493-1.41-.098 0-.098-.985 0-.985 1.247 0 2.854.098 3.904.098.788 0 1.608-.098 3.117-.098.098 0 .164.984 0 .984-.984.099-1.411.361-1.969.886-.688.722-1.213 2.165-2.362 5.25zM26.694 6.32c-3.117-3.379-6.233-2.854-6.758-2.755.262.098.525 5.97 3.838 9.055 2.231 2.034 6.759 1.345 6.759 1.345S29.745 9.6 26.694 6.32zm3.74 11.45c-.984 0-4.987.361-7.644 3.642-2.756 3.478-2.657 6.234-3.28 6.857.524.164 6.134.722 8.53-2.92 2.296-3.38 2.394-7.02 2.394-7.579zM6.091 15.376c.623.098 2.756 2.854 6.594 3.215 4.167.459 5.61-1.674 5.676-1.674 0-.262-3.38-3.904-7.12-3.904-2.591.066-5.15 2.363-5.15 2.363zm15.19 1.87c-.099.098-3.543 4.724-11.745 3.477C2.94 19.641.546 16 .12 15.933c.525-.722 5.511-4.724 11.286-4.626 5.675.164 9.875 3.38 9.875 3.38h3.642c-2.92-.886-6.496-2.494-8.104-6.037-1.41-3.28-1.148-5.25-1.772-8.005 0 0 6.595-.525 11.647 2.756 4.626 3.018 7.185 11.023 7.283 11.286h2.855L36.208.447l3.544.1c-.624 3.74.164 30.412 0 30.412-.361.099-3.38.263-3.642-.46 0 0 .722-13.057.787-13.32h-2.755c0 .165-.263 7.547-5.873 11.484-5.61 3.904-13.681 2.756-13.681 2.756.984-1.51 0-3.117 2.854-7.48 3.281-4.988 7.645-6.76 7.546-6.76-.23.067-3.609.067-3.707.067z" fill="#78788B"/></svg>