<svg width="216" height="25" fill="none" xmlns="http://www.w3.org/2000/svg"><path d="M61.61.968c.48.83 1.014 1.844 1.604 3.043.59 1.2 1.19 2.46 1.8 3.78.61 1.32 1.215 2.661 1.815 4.024a683.699 683.699 0 011.653 3.78c.503-1.156 1.048-2.416 1.636-3.78a163.641 163.641 0 011.8-4.024c.61-1.32 1.21-2.58 1.8-3.78A50.285 50.285 0 0175.322.968h3.716c.201 1.659.39 3.42.566 5.285.177 1.864.338 3.773.483 5.726.145 1.953.278 3.916.4 5.89.122 1.974.228 3.9.317 5.776h-4.057a800.253 800.253 0 00-.318-8.148 166.273 166.273 0 00-.55-8.116c-.24.503-.523 1.103-.85 1.8a233.625 233.625 0 00-2.178 4.81l-1.114 2.537c-.36.818-.691 1.582-.993 2.29-.302.71-.563 1.315-.786 1.816H66.88c-.219-.502-.48-1.113-.785-1.832a195.71 195.71 0 00-.999-2.307c-.36-.818-.73-1.663-1.112-2.536-.381-.873-.758-1.712-1.131-2.52-.37-.804-.72-1.562-1.046-2.274a58.155 58.155 0 00-.85-1.784 164.401 164.401 0 00-.55 8.116 814.497 814.497 0 00-.317 8.148h-4.06c.089-1.876.194-3.817.316-5.825.122-2.007.256-3.997.4-5.971.145-1.975.306-3.89.483-5.743.178-1.855.367-3.567.567-5.138h3.813zM85.252 15.17c0-1.508.224-2.828.672-3.96.447-1.132 1.042-2.075 1.785-2.83a7.39 7.39 0 012.552-1.702 7.908 7.908 0 012.945-.572c2.357 0 4.195.73 5.514 2.192 1.32 1.462 1.98 3.643 1.98 6.545 0 .218-.006.463-.016.736-.011.272-.028.518-.049.736H89.343c.108 1.374.594 2.438 1.456 3.19.862.754 2.111 1.13 3.747 1.132a12.29 12.29 0 002.634-.262c.796-.174 1.424-.36 1.885-.557l.523 3.243c-.29.137-.591.252-.9.343-.43.133-.867.242-1.308.328a19.69 19.69 0 01-1.584.245c-.575.066-1.155.098-1.734.098-1.508 0-2.817-.224-3.927-.67-1.11-.448-2.026-1.07-2.749-1.866a7.642 7.642 0 01-1.603-2.814 11.463 11.463 0 01-.53-3.555zm11.486-1.767a5.214 5.214 0 00-.226-1.554 3.75 3.75 0 00-.671-1.277 3.171 3.171 0 00-1.08-.85c-.426-.207-.933-.311-1.521-.312a3.544 3.544 0 00-1.604.344 3.66 3.66 0 00-1.162.9c-.32.378-.57.81-.736 1.276-.174.476-.295.97-.36 1.473h7.36zm8.77-11.388l3.96-.654v5.17h6.086v3.305h-6.086v6.97c0 1.374.218 2.356.654 2.945.436.59 1.178.884 2.225.883a7.277 7.277 0 001.915-.226c.449-.118.891-.26 1.325-.426l.655 3.142a15.03 15.03 0 01-1.8.603c-.742.207-1.615.31-2.618.31-1.223 0-2.242-.163-3.06-.49-.817-.327-1.466-.802-1.947-1.425-.48-.621-.818-1.374-1.014-2.258a14.057 14.057 0 01-.295-3.027V2.015zm20.387 4.091c1.307 0 2.408.163 3.305.49.896.328 1.61.786 2.143 1.375a5.16 5.16 0 011.146 2.143c.237.902.352 1.832.343 2.765v10.374c-.611.131-1.533.29-2.765.475a28.345 28.345 0 01-4.172.278c-.946.008-1.891-.09-2.815-.295-.85-.196-1.576-.512-2.176-.949a4.472 4.472 0 01-1.407-1.701c-.338-.698-.508-1.56-.507-2.585 0-.982.191-1.812.573-2.489a4.697 4.697 0 011.554-1.652 6.733 6.733 0 012.275-.917 12.788 12.788 0 014.074-.196c.517.062 1.031.155 1.538.278v-.652a5.205 5.205 0 00-.164-1.31 2.708 2.708 0 00-.573-1.095 2.69 2.69 0 00-1.08-.736c-.447-.175-1.008-.262-1.685-.262a14.98 14.98 0 00-2.52.196 11.04 11.04 0 00-1.865.458l-.491-3.208c.503-.174 1.234-.349 2.193-.523a17.222 17.222 0 013.076-.262zm.327 14.757c1.222 0 2.149-.065 2.782-.196v-4.385a8.826 8.826 0 00-2.324-.294c-.444 0-.886.033-1.325.098-.42.057-.828.179-1.211.36a2.21 2.21 0 00-.867.736c-.219.316-.328.714-.327 1.195 0 .938.294 1.587.884 1.947.589.36 1.385.54 2.388.54zm11.326-5.759c-.009-1.208.19-2.41.589-3.55a8.437 8.437 0 011.685-2.865 7.736 7.736 0 012.668-1.898c1.046-.457 2.224-.686 3.534-.687 1.57-.009 3.126.292 4.581.884l-.852 3.242a9.041 9.041 0 00-1.553-.49 8.396 8.396 0 00-1.849-.197c-1.55 0-2.728.485-3.534 1.456-.806.97-1.21 2.34-1.211 4.107 0 1.702.382 3.049 1.145 4.041.764.993 2.051 1.49 3.861 1.489.67 0 1.339-.065 1.996-.196a9.434 9.434 0 001.702-.491l.556 3.272c-.436.219-1.096.415-1.98.59-.9.175-1.815.263-2.732.26-1.461 0-2.732-.223-3.812-.67-1.08-.447-1.975-1.068-2.684-1.865a7.72 7.72 0 01-1.583-2.847 11.77 11.77 0 01-.527-3.585zm32.327-.033c0 1.353-.197 2.586-.589 3.699-.393 1.112-.949 2.06-1.669 2.846a7.495 7.495 0 01-2.602 1.833c-1.014.436-2.132.654-3.354.654s-2.334-.217-3.338-.654a7.547 7.547 0 01-2.585-1.833 8.385 8.385 0 01-1.685-2.846c-.402-1.113-.603-2.346-.603-3.699 0-1.352.201-2.58.603-3.68a8.263 8.263 0 011.702-2.831 7.504 7.504 0 012.603-1.82 8.386 8.386 0 013.306-.637 8.504 8.504 0 013.321.637 7.324 7.324 0 012.601 1.817 8.396 8.396 0 011.685 2.83c.402 1.104.603 2.332.604 3.684zm-4.058 0c0-1.7-.365-3.048-1.096-4.041-.731-.993-1.751-1.49-3.06-1.489-1.307 0-2.326.497-3.059 1.489-.733.992-1.099 2.34-1.097 4.041 0 1.724.366 3.087 1.097 4.09.73 1.004 1.75 1.507 3.059 1.509 1.307 0 2.327-.503 3.06-1.508.733-1.006 1.098-2.37 1.096-4.09zm18.717-.425c0-1.789-.223-3.081-.671-3.878-.447-.796-1.281-1.195-2.503-1.194-.481.003-.962.036-1.439.098-.524.066-.916.12-1.179.164v13.809h-3.959V7.087c.763-.217 1.761-.425 2.994-.622 1.294-.2 2.601-.299 3.91-.294 1.179 0 2.144.153 2.896.458a5.606 5.606 0 011.885 1.21c.293-.206.599-.391.916-.556a9.58 9.58 0 011.244-.54c.476-.168.962-.304 1.456-.408a7.437 7.437 0 011.555-.164c1.33 0 2.426.19 3.288.572.863.382 1.539.917 2.029 1.604.491.687.829 1.516 1.015 2.488a17.16 17.16 0 01.278 3.191v9.619h-3.963v-8.999c0-1.789-.218-3.081-.655-3.878-.436-.796-1.276-1.195-2.519-1.194a5.218 5.218 0 00-1.8.31c-.567.209-.993.41-1.276.604a8.76 8.76 0 01.36 1.734c.067.651.1 1.306.098 1.96v9.463h-3.96v-8.999zm23.663 6.152c1.048 0 1.811-.126 2.291-.377.479-.252.719-.682.72-1.293 0-.567-.257-1.035-.769-1.406-.513-.371-1.361-.775-2.544-1.21a19.917 19.917 0 01-1.979-.835 6.75 6.75 0 01-1.555-1.031 4.218 4.218 0 01-1.027-1.421c-.252-.556-.377-1.238-.377-2.045 0-1.57.578-2.808 1.734-3.714 1.156-.906 2.727-1.358 4.712-1.357a14.49 14.49 0 012.88.278c.916.185 1.603.365 2.061.54l-.718 3.206a9.767 9.767 0 00-1.669-.54 10.088 10.088 0 00-2.356-.245c-.808 0-1.461.136-1.96.41-.5.272-.751.692-.754 1.26-.006.258.044.515.147.753.116.24.291.447.507.603.296.219.614.405.949.557.47.216.95.407 1.44.572.815.296 1.613.64 2.388 1.03a6.496 6.496 0 011.621 1.146c.415.41.734.908.932 1.457.196.545.294 1.199.294 1.96 0 1.636-.605 2.874-1.815 3.714-1.211.84-2.94 1.26-5.187 1.26-1.508 0-2.719-.126-3.633-.378-.914-.25-1.557-.452-1.93-.603l.687-3.304a17.62 17.62 0 002.111.686c.816.218 1.749.327 2.799.327zM39.346 23.814a11.31 11.31 0 01-9.764-5.636h-.008a2.29 2.29 0 113.966-2.285 6.701 6.701 0 101.527-8.509L18.474 21.21a11.277 11.277 0 01-7.203 2.601C5.056 23.81 0 18.758 0 12.54 0 6.324 5.056 1.27 11.27 1.27c1.41-.003 2.808.26 4.12.775a2.288 2.288 0 01-1.671 4.26l-.004-.008a6.699 6.699 0 101.854 11.39L32.14 3.876a11.289 11.289 0 017.208-2.606c6.214.004 11.27 5.06 11.27 11.277s-5.056 11.268-11.27 11.268z" fill="#78788B"/><path d="M20.039 11.007a2.83 2.83 0 11-.007-5.659 2.83 2.83 0 01.007 5.659z" fill="#78788B"/></svg>