<svg width="209" height="39" fill="none" xmlns="http://www.w3.org/2000/svg"><path d="M10.917 12.47c-.556.002-1.135.723-1.783 2.242l-1.621 4.226s.939 2.833 1.464 4.226c.526 1.392.83 2.243 2.137 2.243h.005c.556-.002 1.135-.724 1.783-2.243l1.621-4.226s-.939-2.833-1.464-4.225c-.526-1.393-.829-2.245-2.141-2.242h-.001z" fill="#78788B"/><path d="M22.012 8.093c-1.825 0-2.573 1.758-3.036 2.732-.463.973-4.454 8.112-4.454 8.112s3.744 6.992 4.304 8.113c.56 1.122 1.456 2.732 3.281 2.732 1.825 0 2.574-1.759 3.037-2.732.463-.973 4.453-8.113 4.453-8.113s-3.744-6.991-4.304-8.112c-.56-1.122-1.456-2.732-3.28-2.732z" fill="#78788B"/><path d="M18.488.442C8.278.442 0 8.719 0 18.93c0 10.21 8.277 18.488 18.488 18.488 10.21 0 18.488-8.277 18.488-18.488S28.7.442 18.488.442zm0 33.347c-8.207 0-14.86-6.652-14.86-14.86 0-8.206 6.653-14.859 14.86-14.859s14.86 6.653 14.86 14.86-6.653 14.86-14.86 14.86zm77.159-19.515c-.839-.521-1.9-.783-3.183-.783a5.865 5.865 0 00-1.796.293 7.38 7.38 0 00-1.73.816 7.786 7.786 0 00-1.453 1.192 5.53 5.53 0 00-.928 1.288 5.884 5.884 0 00-.818-1.631 4.468 4.468 0 00-1.828-1.469c-.74-.327-1.6-.49-2.58-.49-.674 0-1.343.123-1.974.36a7.516 7.516 0 00-1.796.963 6.304 6.304 0 00-1.616 1.697v-2.725h-3.394v17.137h3.394V20.608a3.837 3.837 0 011.241-2.856 4.413 4.413 0 011.37-.849 4.578 4.578 0 011.698-.31c.718 0 1.327.163 1.827.49.501.326.882.8 1.143 1.42.261.62.392 1.375.392 2.268v10.152h3.394v-10.25a3.932 3.932 0 01.327-1.617c.215-.486.526-.924.914-1.289.402-.376.873-.67 1.388-.865a4.703 4.703 0 011.713-.31c.784 0 1.426.152 1.926.457.5.305.876.767 1.126 1.388.25.62.375 1.42.375 2.399v10.087h3.394V20.639c0-1.588-.212-2.916-.636-3.982-.425-1.066-1.055-1.86-1.893-2.383h.002zM57.08 8.072l-8.846 22.85h3.59l2.16-5.68h9.56l2.153 5.68h3.754l-8.782-22.85h-3.59zm-1.804 13.776l1.738-4.57.49-1.387c.196-.556.397-1.148.603-1.78l.588-1.795.092-.28.022.068c.197.598.414 1.257.653 1.975.239.718.451 1.37.636 1.958.185.588.31.957.375 1.11l1.782 4.7h-6.98v.001zM146.031 9.41h-3.362v4.375h-3.558v3.264h3.558v13.874h3.362V17.049h3.982v-3.264h-3.982V9.41zm39.497 6.486a6.495 6.495 0 00-1.045-.952 7.813 7.813 0 00-2.138-1.11 7.56 7.56 0 00-2.465-.407c-1.545 0-2.927.386-4.146 1.159-1.219.772-2.182 1.828-2.888 3.167-.708 1.338-1.061 2.866-1.061 4.585 0 1.72.359 3.248 1.077 4.586s1.691 2.394 2.921 3.167c1.23.772 2.628 1.16 4.194 1.16.784 0 1.562-.133 2.301-.392a7.21 7.21 0 001.992-1.045c.477-.35.9-.769 1.257-1.241v2.35h3.362V6.768h-3.362v9.13l.001-.002zm-.539 9.525a5.362 5.362 0 01-1.844 2.139c-.784.521-1.687.783-2.709.783-1.023 0-1.926-.26-2.71-.783a5.362 5.362 0 01-1.844-2.139c-.446-.902-.67-1.931-.67-3.084 0-1.154.223-2.182.67-3.085a5.362 5.362 0 011.844-2.138c.784-.522 1.687-.784 2.71-.784 1.022 0 1.925.26 2.709.784a5.362 5.362 0 011.844 2.138c.446.903.67 1.931.67 3.085 0 1.153-.223 2.182-.67 3.084zM164.768 24.1a4.369 4.369 0 01-.327 1.698 3.983 3.983 0 01-.898 1.338c-.39.375-.851.67-1.355.864a4.665 4.665 0 01-1.73.311c-.849 0-1.572-.196-2.171-.588-.598-.391-1.055-.952-1.37-1.68-.315-.73-.473-1.595-.473-2.596v-9.662h-3.362V24.36c0 1.415.244 2.634.734 3.657.489 1.023 1.186 1.817 2.089 2.383.903.565 1.964.848 3.183.848a6.618 6.618 0 002.742-.571 6.885 6.885 0 002.203-1.55c.278-.287.524-.603.735-.939v2.733h3.362V13.785h-3.362V24.1zm43.691-5.696a7.658 7.658 0 00-1.632-2.628 7.794 7.794 0 00-2.497-1.746 7.56 7.56 0 00-3.102-.637 9.072 9.072 0 00-3.508.67 7.97 7.97 0 00-2.775 1.893 8.836 8.836 0 00-1.811 2.889c-.435 1.11-.652 2.34-.652 3.689 0 1.697.386 3.199 1.159 4.505a8.303 8.303 0 003.199 3.084c1.36.75 2.921 1.126 4.684 1.126a9.344 9.344 0 002.465-.343 11.88 11.88 0 002.382-.93 7.74 7.74 0 001.91-1.37l-1.697-2.384c-.849.74-1.637 1.252-2.367 1.535a6.5 6.5 0 01-2.367.424c-1.197 0-2.252-.239-3.166-.718a5.112 5.112 0 01-2.122-2.04c-.378-.665-.614-1.422-.706-2.268h13.11l.032-1.437c.022-1.197-.158-2.3-.539-3.313v-.001zm-10.201-1.24c.805-.446 1.795-.67 2.97-.67a4.41 4.41 0 012.057.49c.62.317 1.157.775 1.566 1.338a3.79 3.79 0 01.719 1.926v.229h-9.587c.102-.497.251-.95.447-1.355a4.314 4.314 0 011.828-1.958zM133.659 5.755c-.696 0-1.246.196-1.649.588-.403.391-.604.903-.604 1.534 0 .674.197 1.197.588 1.567.392.37.947.555 1.665.555.696 0 1.246-.196 1.649-.588.402-.391.603-.902.603-1.534 0-.674-.196-1.197-.587-1.567-.392-.37-.947-.555-1.665-.555zm-6.954 1.012h-3.361v24.155h3.361V6.767zm8.683 7.018h-3.362v17.137h3.362V13.785zm-19.649.848c-1.198-.761-2.568-1.142-4.114-1.142-.938 0-1.866.195-2.726.571a7.28 7.28 0 00-2.236 1.469 4.846 4.846 0 00-.588.69v-2.436h-3.394v24.319h3.394v-9.421c.11.126.23.253.359.378a7.868 7.868 0 002.383 1.551c.917.4 1.906.604 2.905.604 1.502 0 2.851-.387 4.048-1.16 1.197-.772 2.138-1.827 2.824-3.165.686-1.338 1.028-2.856 1.028-4.553 0-1.698-.348-3.243-1.044-4.57-.697-1.328-1.643-2.373-2.84-3.134h.001zm-.033 10.674a5.306 5.306 0 01-1.861 2.056c-.784.501-1.675.75-2.676.75-1.023 0-1.926-.25-2.71-.75a5.322 5.322 0 01-1.861-2.056c-.457-.87-.685-1.86-.685-2.97s.228-2.1.685-2.971a5.2 5.2 0 011.861-2.04c.784-.49 1.687-.734 2.71-.734s1.926.25 2.709.75a5.229 5.229 0 011.845 2.04c.446.86.67 1.845.67 2.955s-.229 2.1-.686 2.97h-.001z" fill="#78788B"/></svg>