<svg width="152" height="23" fill="none" xmlns="http://www.w3.org/2000/svg"><path d="M25.227 19.317c-2.028-2.096-3.047-4.592-3.047-7.486 0-1.58.288-3.066.858-4.447.576-1.378 1.338-2.533 2.295-3.469a10.72 10.72 0 013.286-2.204 9.589 9.589 0 013.834-.8c2.825 0 5.278 1.021 7.36 3.064 2.08 2.036 3.12 4.565 3.12 7.584 0 3.019-.999 5.591-2.977 7.717-1.986 2.126-4.428 3.183-7.328 3.183-2.897 0-5.361-1.044-7.401-3.142zm21.185 0c-2.031-2.096-3.05-4.592-3.05-7.486 0-1.58.29-3.066.861-4.447.568-1.378 1.334-2.533 2.287-3.469a10.77 10.77 0 013.294-2.204 9.56 9.56 0 013.834-.8c2.82 0 5.278 1.021 7.358 3.064 2.075 2.036 3.116 4.565 3.116 7.584 0 3.019-.989 5.591-2.975 7.717-1.987 2.126-4.424 3.183-7.323 3.183-2.901 0-5.37-1.044-7.402-3.142zm68.782 0c-2.033-2.096-3.046-4.592-3.046-7.486 0-1.58.287-3.066.857-4.447.574-1.378 1.338-2.533 2.291-3.469a10.811 10.811 0 013.29-2.204 9.59 9.59 0 013.834-.8c2.832 0 5.278 1.021 7.358 3.064 2.082 2.036 3.118 4.565 3.118 7.584 0 3.019-.991 5.591-2.979 7.717-1.98 2.126-4.422 3.183-7.325 3.183-2.899 0-5.366-1.044-7.398-3.142zm17.583 2.07c-.752-.675-1.123-1.255-1.123-1.73 0-.473.329-1.085.995-1.827l5.755-6.316-5.755-6.315c-.666-.705-.995-1.306-.995-1.798 0-.498.365-1.082 1.115-1.758.739-.676 1.366-1.018 1.87-1.018s1.093.382 1.765 1.145l5.435 6.233 5.437-6.233c.686-.763 1.275-1.145 1.759-1.145.489 0 1.101.337 1.848.998.742.674 1.117 1.262 1.117 1.778 0 .514-.329 1.114-.973 1.798l-5.756 6.315 5.756 6.316c.644.728.973 1.337.973 1.827 0 .5-.371 1.081-1.109 1.745-.727.667-1.345 1.004-1.856 1.004-.506 0-1.091-.383-1.759-1.14l-5.437-6.234-5.435 6.234c-.692.757-1.276 1.14-1.765 1.14-.486 0-1.107-.342-1.862-1.018zm-123.87.379c-.383-.378-.57-1.095-.57-2.168l-.022-4.951-4.965-.021c-1.069 0-1.793-.191-2.176-.568C.802 13.68.612 12.954.62 11.88c.006-1.076.196-1.793.554-2.157.37-.358 1.085-.545 2.148-.545l4.969.026-.044-4.94c0-1.066.183-1.785.554-2.154.371-.366 1.089-.554 2.16-.554 1.07 0 1.79.188 2.169.568.38.375.57 1.096.57 2.165l.022 4.955 4.965.023c1.063 0 1.794.191 2.173.567.37.378.56 1.095.55 2.158-.007 1.053-.199 1.776-.566 2.14-.372.371-1.094.56-2.157.56l-4.921-.021v4.927c0 1.073-.18 1.786-.544 2.148-.361.368-1.079.553-2.148.572-1.07.012-1.792-.17-2.167-.552zm56.24-.732c-.118-.31-.177-.796-.177-1.459V3.686c0-.44.02-.768.048-.99.03-.217.115-.464.27-.75.268-.52 1.012-.778 2.236-.778 1.338 0 2.13.35 2.375 1.063.095.322.143.816.143 1.487v14.173h7.782c.633 0 1.093.068 1.378.212.281.143.477.369.573.668.09.306.143.712.143 1.219 0 .504-.054.91-.144 1.21-.095.309-.265.52-.49.63-.359.193-.86.29-1.493.29H67.492c-1.336 0-2.116-.363-2.345-1.086zm33.294 0c-.117-.31-.173-.796-.173-1.459V3.686c0-.44.014-.768.042-.99.032-.217.118-.465.277-.75.26-.52 1.007-.778 2.229-.778 1.338 0 2.126.35 2.379 1.063.094.322.138.816.138 1.487v14.173h7.788c.628 0 1.086.068 1.372.212.287.143.476.369.568.668.1.306.147.712.147 1.219 0 .504-.047.91-.147 1.21-.092.309-.255.52-.485.63-.364.193-.855.29-1.481.29h-10.313c-1.332 0-2.107-.363-2.34-1.086zm-17.498-.033c-.11-.322-.17-.813-.17-1.48V3.66c0-.461.014-.792.046-1.004.028-.206.116-.456.272-.74.263-.518 1.008-.768 2.237-.768h7.208c1.76 0 3.222.601 4.408 1.825 1.236 1.237 1.862 2.723 1.862 4.46a5.949 5.949 0 01-1.088 3.455c1.12 1.335 1.683 2.826 1.683 4.488-.038 1.902-.688 3.497-1.958 4.788-1.266 1.284-2.808 1.926-4.618 1.926h-7.531c-1.336 0-2.118-.359-2.351-1.088zm-44.71-5.139c1.087-1.03 1.632-2.414 1.632-4.146 0-1.736-.545-3.125-1.646-4.175-1.098-1.047-2.322-1.571-3.678-1.571-1.352 0-2.576.532-3.665 1.591-1.08 1.056-1.63 2.429-1.63 4.127 0 1.694.553 3.073 1.642 4.127 1.1 1.059 2.329 1.588 3.679 1.588 1.358 0 2.582-.515 3.666-1.54zm21.184 0c1.088-1.03 1.625-2.414 1.625-4.146 0-1.736-.54-3.125-1.64-4.175-1.1-1.047-2.32-1.571-3.676-1.571-1.354 0-2.576.53-3.663 1.591-1.088 1.056-1.637 2.429-1.637 4.127 0 1.694.553 3.073 1.651 4.127 1.095 1.059 2.317 1.588 3.675 1.588 1.358 0 2.578-.515 3.665-1.54zm68.784 0c1.088-1.03 1.631-2.414 1.631-4.146 0-1.736-.549-3.125-1.645-4.175-1.097-1.047-2.325-1.571-3.685-1.571-1.348 0-2.57.532-3.659 1.591-1.086 1.056-1.631 2.429-1.631 4.127 0 1.694.551 3.073 1.645 4.127 1.099 1.059 2.325 1.588 3.679 1.588 1.356 0 2.576-.515 3.665-1.54zm-33.86-.771c0-.458-.055-.823-.162-1.088a1.033 1.033 0 00-.53-.576c-.378-.146-.912-.223-1.602-.223-.684 0-1.198-.13-1.545-.402-.343-.27-.515-.815-.515-1.643 0-.83.182-1.376.529-1.642.355-.267.947-.402 1.764-.402.762 0 1.219-.203 1.368-.602.058-.212.094-.552.094-1.025 0-.48-.166-.813-.477-1-.317-.193-.785-.285-1.417-.285h-4.004l-.002 10.822h4.694c1.206 0 1.804-.642 1.804-1.934z" fill="#78788B"/></svg>