<svg width="267" height="40" fill="none" xmlns="http://www.w3.org/2000/svg"><path d="M45.434 21.588c.103.697.52 1.247 1.254 1.65.733.396 1.701.594 2.904.594 1.13 0 2.01-.147 2.64-.44.638-.293.957-.711.957-1.254 0-.293-.08-.535-.242-.726-.161-.198-.436-.36-.825-.484-.381-.125-.913-.22-1.595-.286l-3.058-.286c-2.251-.205-3.898-.711-4.939-1.518-1.034-.814-1.551-1.943-1.551-3.388 0-1.122.33-2.079.99-2.871.66-.8 1.591-1.404 2.794-1.815 1.21-.418 2.629-.627 4.257-.627 1.57 0 2.974.227 4.213.682 1.24.455 2.218 1.093 2.937 1.914a4.674 4.674 0 011.199 2.849h-4.642c-.08-.594-.455-1.06-1.122-1.397-.66-.345-1.551-.517-2.673-.517-1.041 0-1.859.14-2.453.418-.587.279-.88.675-.88 1.188 0 .403.183.719.55.946.367.22 1.008.378 1.925.473l3.289.319c1.562.147 2.812.4 3.751.759.939.36 1.62.85 2.046 1.474.425.623.638 1.412.638 2.365 0 1.144-.345 2.152-1.034 3.025-.69.865-1.661 1.536-2.915 2.013-1.254.477-2.702.715-4.345.715-1.694 0-3.194-.238-4.499-.715-1.305-.484-2.325-1.162-3.058-2.035a4.815 4.815 0 01-1.155-3.025h4.642zm25.35-7.161h4.786l-6.04 12.815c-.615 1.313-1.418 2.266-2.408 2.86a6.231 6.231 0 01-3.267.891c-.917 0-1.738-.114-2.464-.341a7.202 7.202 0 01-2.101-1.067v-3.113c.697.44 1.346.755 1.947.946.601.19 1.261.286 1.98.286.653 0 1.203-.14 1.65-.418.447-.279.814-.755 1.1-1.43l.01-.033H64.01l-5.346-11.396h4.96l3.543 8.58 3.619-8.58zm15.826-.363c1.188 0 2.211.242 3.07.726a4.713 4.713 0 011.957 2.046c.448.887.671 1.932.671 3.135V27H87.82v-6.369c0-.939-.238-1.657-.715-2.156-.476-.499-1.162-.748-2.057-.748-.623 0-1.166.132-1.628.396-.454.257-.806.63-1.056 1.122-.242.484-.363 1.052-.363 1.705V27h-4.499v-8.228l-.825-4.345h4.5l.428 2.618c.543-.968 1.247-1.705 2.112-2.211a5.601 5.601 0 012.893-.77zm7.145 3.685v-1.958l2.564-1.023 1.935-3.718h2.552v3.377h5.291v3.322h-5.291v3.718c0 .616.077 1.1.231 1.452.162.352.426.605.792.759.367.154.88.231 1.54.231a7.99 7.99 0 001.584-.143 7.556 7.556 0 001.364-.429v3.366c-.498.183-1.103.337-1.815.462a11.79 11.79 0 01-2.156.198c-2.031 0-3.545-.462-4.543-1.386-.99-.931-1.484-2.233-1.484-3.905v-4.323h-2.564zm23.915-3.685c1.188 0 2.211.242 3.069.726a4.711 4.711 0 011.958 2.046c.455.887.682 1.932.682 3.135V27h-4.499v-6.369c0-.939-.238-1.657-.715-2.156-.476-.499-1.158-.748-2.046-.748-.623 0-1.166.132-1.628.396-.454.257-.806.63-1.056 1.122-.242.484-.363 1.052-.363 1.705V27h-4.499V10.06h4.499v6.358c.55-.77 1.221-1.353 2.013-1.749a5.615 5.615 0 012.585-.605zm12.528 7.524c.103.697.521 1.247 1.254 1.65.734.396 1.702.594 2.904.594 1.13 0 2.01-.147 2.64-.44.638-.293.957-.711.957-1.254 0-.293-.08-.535-.242-.726-.161-.198-.436-.36-.825-.484-.381-.125-.913-.22-1.595-.286l-3.058-.286c-2.251-.205-3.897-.711-4.939-1.518-1.034-.814-1.551-1.943-1.551-3.388 0-1.122.33-2.079.99-2.871.66-.8 1.592-1.404 2.794-1.815 1.21-.418 2.629-.627 4.257-.627 1.57 0 2.974.227 4.213.682 1.24.455 2.219 1.093 2.937 1.914a4.672 4.672 0 011.199 2.849h-4.642c-.08-.594-.454-1.06-1.122-1.397-.66-.345-1.551-.517-2.673-.517-1.041 0-1.859.14-2.453.418-.586.279-.88.675-.88 1.188 0 .403.184.719.55.946.367.22 1.009.378 1.925.473l3.289.319c1.562.147 2.813.4 3.751.759.939.36 1.621.85 2.046 1.474.426.623.638 1.412.638 2.365 0 1.144-.344 2.152-1.034 3.025-.689.865-1.661 1.536-2.915 2.013-1.254.477-2.702.715-4.345.715-1.694 0-3.193-.238-4.499-.715-1.305-.484-2.324-1.162-3.058-2.035a4.819 4.819 0 01-1.155-3.025h4.642zm24.473-7.524c1.217 0 2.295.279 3.234.836.946.55 1.679 1.331 2.2 2.343.52 1.005.781 2.163.781 3.476 0 1.305-.261 2.464-.781 3.476a5.704 5.704 0 01-2.2 2.343c-.939.55-2.017.825-3.234.825-1.1 0-2.101-.246-3.003-.737a6.447 6.447 0 01-2.266-2.079v6.083h-4.499V14.427h4.499v2.409c.616-.887 1.371-1.57 2.266-2.046.902-.484 1.903-.726 3.003-.726zm-1.353 9.856c.586 0 1.107-.136 1.562-.407.462-.279.821-.66 1.078-1.144.256-.484.385-1.034.385-1.65 0-.616-.129-1.166-.385-1.65a2.8 2.8 0 00-1.078-1.144c-.455-.279-.976-.418-1.562-.418a3.75 3.75 0 00-1.716.418 4.559 4.559 0 00-1.441 1.144 5.077 5.077 0 00-.935 1.65c.212.616.524 1.166.935 1.65a4.78 4.78 0 001.441 1.144c.55.271 1.122.407 1.716.407zm14.254-1.925c.308.667.829 1.18 1.562 1.54.733.352 1.657.528 2.772.528.924 0 1.844-.121 2.761-.363a9.795 9.795 0 002.508-1.034v2.86a10.358 10.358 0 01-2.981 1.364 12.96 12.96 0 01-3.564.473c-1.518 0-2.878-.279-4.081-.836-1.203-.565-2.145-1.353-2.827-2.365-.682-1.012-1.023-2.174-1.023-3.487 0-1.29.326-2.438.979-3.443.66-1.005 1.569-1.782 2.728-2.332 1.159-.557 2.464-.836 3.916-.836 1.474 0 2.75.326 3.828.979 1.078.645 1.903 1.566 2.475 2.761.579 1.188.869 2.585.869 4.191h-9.922zm2.849-4.763c-.77 0-1.423.187-1.958.561a2.782 2.782 0 00-1.089 1.496h5.94c-.205-.66-.557-1.166-1.056-1.518-.491-.36-1.104-.539-1.837-.539zm24.428 4.466a5.574 5.574 0 01-1.232 2.959c-.696.858-1.609 1.525-2.739 2.002-1.129.47-2.383.704-3.762.704-1.532 0-2.893-.279-4.081-.836-1.18-.557-2.101-1.338-2.761-2.343-.652-1.012-.979-2.167-.979-3.465s.327-2.45.979-3.454c.66-1.012 1.581-1.797 2.761-2.354 1.188-.565 2.549-.847 4.081-.847 1.379 0 2.633.238 3.762.715 1.13.47 2.043 1.137 2.739 2.002a5.574 5.574 0 011.232 2.959h-4.466c-.154-.74-.524-1.313-1.111-1.716-.586-.41-1.305-.616-2.156-.616-.667 0-1.25.128-1.749.385a2.711 2.711 0 00-1.144 1.133c-.264.499-.396 1.096-.396 1.793 0 1.049.294 1.863.88 2.442.594.572 1.397.858 2.409.858.844 0 1.559-.209 2.145-.627a2.74 2.74 0 001.122-1.694h4.466zm.933-3.949v-1.958l2.563-1.023 1.936-3.718h2.552v3.377h5.291v3.322h-5.291v3.718c0 .616.077 1.1.231 1.452.162.352.426.605.792.759.367.154.88.231 1.54.231a7.99 7.99 0 001.584-.143 7.556 7.556 0 001.364-.429v3.366c-.498.183-1.103.337-1.815.462a11.79 11.79 0 01-2.156.198c-2.031 0-3.545-.462-4.543-1.386-.99-.931-1.485-2.233-1.485-3.905v-4.323h-2.563zm23.871-3.685c.484 0 1.001.059 1.551.176v3.839a11.416 11.416 0 00-2.288-.253c-1.071 0-1.936.323-2.596.968-.66.645-.99 1.657-.99 3.036V27h-4.499v-8.338l-.825-4.235h4.576l.55 3.311c.851-2.45 2.358-3.674 4.521-3.674zM238.413 27h-4.488l-.429-2.596c-.536.96-1.225 1.694-2.068 2.2a5.411 5.411 0 01-2.805.748c-1.159 0-2.156-.238-2.992-.715a4.766 4.766 0 01-1.914-2.057c-.44-.887-.66-1.929-.66-3.124v-7.029h4.499v6.38c0 .931.223 1.646.671 2.145.454.491 1.103.737 1.947.737.931 0 1.65-.279 2.156-.836.513-.565.77-1.357.77-2.376v-6.05h4.499v8.239l.814 4.334zm21.16-12.936c1.137 0 2.116.242 2.937.726a4.6 4.6 0 011.87 2.046c.433.887.649 1.932.649 3.135V27h-4.499v-6.369c0-.939-.216-1.657-.649-2.156-.425-.499-1.041-.748-1.848-.748-.572 0-1.067.132-1.485.396-.41.257-.729.627-.957 1.111-.22.484-.33 1.056-.33 1.716V27h-4.499v-6.369c0-.939-.216-1.657-.649-2.156-.425-.499-1.041-.748-1.848-.748-.572 0-1.067.132-1.485.396-.41.257-.729.627-.957 1.111-.22.484-.33 1.056-.33 1.716V27h-4.499v-8.228l-.825-4.345h4.499l.418 2.563c.521-.953 1.192-1.68 2.013-2.178a5.157 5.157 0 012.728-.748c1.203 0 2.226.271 3.069.814.844.535 1.467 1.298 1.87 2.288.514-1.005 1.185-1.771 2.013-2.299a5.075 5.075 0 012.794-.803zM0 21.864c0-.61.258-1.192.71-1.602l3.135-2.84s-.24.96-.24 1.2v9.733c0 .36.24 1.201.24 1.201L.799 27.081A2.162 2.162 0 010 25.403v-3.539zm26.673-2.162c0-.61-.258-1.193-.71-1.603l-3.135-2.84s.24.96.24 1.201v12.375c0 .36-.24 1.202-.24 1.202l3.046-2.475c.505-.41.799-1.027.799-1.678v-6.182zM5.767 13.187c0-.747.315-1.458.868-1.96L9.612 8.53s-.24.962-.24 1.202v24.87c0 .36.24 1.202.24 1.202l-2.868-2.33a2.643 2.643 0 01-.977-2.052V13.186zm15.139-2.403c0-.747-.316-1.458-.869-1.96l-2.976-2.696s.24.96.24 1.201v27.273c0 .36-.24 1.202-.24 1.202l2.868-2.33a2.643 2.643 0 00.977-2.052V10.783zM13.336 0s-1.802 1.682-1.802 2.643v34.362c0 .962 1.802 2.644 1.802 2.644s1.803-1.682 1.803-2.644V2.643c0-.96-1.803-2.643-1.803-2.643z" fill="#fff"/></svg>