<svg width="127" height="114" fill="none" xmlns="http://www.w3.org/2000/svg"><path d="M80 114a4 4 0 01-4-4V57.67c0-15.348 4.583-27.94 13.75-37.776C98.917 9.91 111.333 3.278 127 0v25.035c-4.833 1.341-8.75 2.98-11.75 4.918-3 1.937-5.333 4.247-7 6.93-1.667 2.682-2.75 5.811-3.25 9.388-.5 3.427-.75 7.227-.75 11.4v6.035H123a4 4 0 014 4V110a4 4 0 01-4 4H80zm-76 0a4 4 0 01-4-4V57.67c0-15.348 4.583-27.94 13.75-37.776C22.917 9.91 35.333 3.278 51 0v25.035c-4.833 1.341-8.75 2.98-11.75 4.918-3 1.937-5.333 4.247-7 6.93-1.5 2.682-2.583 5.811-3.25 9.388-.5 3.427-.75 7.227-.75 11.4v6.035H47a4 4 0 014 4V110a4 4 0 01-4 4H4z" fill="#BEC0DC"/></svg>